<svg t="1684299152329" class="icon" viewBox="0 0 1024 1024" version="1.1" xmlns="http://www.w3.org/2000/svg" p-id="8618"
    width="200" height="200">
    <path
        d="M283.175385 881.427692l391.168-330.988307c5.986462-12.051692 12.051692-18.116923 12.051692-36.076308 0-6.065231-6.065231-24.103385-12.051692-30.089846L289.083077 135.246769a64.433231 64.433231 0 0 1-5.986462-84.283077 64.433231 64.433231 0 0 1 84.283077-5.986461l385.10277 348.947692c36.076308 30.168615 54.114462 78.296615 54.114461 126.424615s-24.024615 90.269538-60.179692 126.345847L361.550769 977.683692c-24.103385 24.024615-60.179692 18.038154-84.283077-6.06523-5.986462-12.051692-12.051692-30.089846-12.051692-42.141539 0-18.038154 6.065231-36.076308 18.116923-48.049231z"
        fill="#51b4e8" p-id="8619"></path>
</svg>